<?xml version="1.0" standalone="no"?>
<!DOCTYPE svg PUBLIC "-//W3C//DTD SVG 20010904//EN"
 "http://www.w3.org/TR/2001/REC-SVG-20010904/DTD/svg10.dtd">
<svg version="1.0" xmlns="http://www.w3.org/2000/svg"
 width="1024.000000pt" height="1024.000000pt" viewBox="0 0 1024.000000 1024.000000"
 preserveAspectRatio="xMidYMid meet">

<g transform="translate(0.000000,1024.000000) scale(0.100000,-0.100000)"
fill="#000000" stroke="none">
<path d="M4775 9724 c-590 -62 -1076 -283 -1478 -673 -460 -446 -714 -1017
-734 -1648 l-6 -183 650 0 650 0 6 108 c17 311 142 582 366 795 247 235 545
339 926 324 208 -8 333 -39 499 -123 209 -106 397 -310 491 -532 68 -161 80
-233 79 -462 0 -173 -4 -221 -23 -310 -53 -247 -165 -445 -362 -641 -148 -147
-376 -321 -588 -450 -152 -92 -249 -167 -375 -289 -330 -319 -529 -723 -586
-1185 -8 -61 -9 -215 -4 -482 l7 -393 641 2 641 3 6 305 c6 316 12 369 59 518
76 236 243 450 521 666 63 49 218 157 344 241 260 172 327 224 474 368 363
356 591 806 678 1332 25 156 25 581 0 745 -104 666 -434 1189 -972 1542 -328
215 -706 348 -1146 403 -119 15 -671 29 -764 19z"/>
<path d="M4930 2554 c-335 -59 -587 -241 -730 -524 -70 -139 -98 -255 -105
-441 -9 -219 21 -381 100 -544 138 -281 414 -479 733 -525 123 -18 395 -8 493
18 363 97 627 373 705 737 20 94 27 318 13 435 -26 228 -127 430 -290 585
-123 117 -259 194 -417 237 -64 17 -111 21 -277 24 -110 1 -211 0 -225 -2z"/>
</g>
</svg>
